<?xml version="1.0" encoding="UTF-8" standalone="no"?>
<!-- Created with Inkscape (http://www.inkscape.org/) -->

<svg
   width="302"
   height="302"
   viewBox="0 0 79.904165 79.904172"
   version="1.1"
   id="svg5"
   xml:space="preserve"
   inkscape:version="1.1 (c68e22c387, 2021-05-23)"
   sodipodi:docname="tyre_icon.svg"
   xmlns:inkscape="http://www.inkscape.org/namespaces/inkscape"
   xmlns:sodipodi="http://sodipodi.sourceforge.net/DTD/sodipodi-0.dtd"
   xmlns="http://www.w3.org/2000/svg"
   xmlns:svg="http://www.w3.org/2000/svg"><sodipodi:namedview
     id="namedview7"
     pagecolor="#505050"
     bordercolor="#ffffff"
     borderopacity="1"
     inkscape:pageshadow="0"
     inkscape:pageopacity="0"
     inkscape:pagecheckerboard="1"
     inkscape:deskcolor="#505050"
     inkscape:document-units="mm"
     showgrid="false"
     inkscape:zoom="1"
     inkscape:cx="26.5"
     inkscape:cy="251.5"
     inkscape:window-width="1920"
     inkscape:window-height="1001"
     inkscape:window-x="-9"
     inkscape:window-y="-9"
     inkscape:window-maximized="1"
     inkscape:current-layer="g312"
     showguides="false"
     units="px"
     width="300px" /><defs
     id="defs2" /><g
     inkscape:label="Zeichenhilfen"
     inkscape:groupmode="layer"
     id="layer1"
     style="display:inline"
     transform="translate(-22.071831,-18.858333)"><ellipse
       style="opacity:0.5;fill:#ff0000;stroke-width:0.0950449"
       id="path729"
       cx="84.263885"
       cy="173.30211"
       rx="24.600342"
       ry="39.026039" /><ellipse
       style="opacity:0.5;fill:#ffff00;stroke-width:0.0950449"
       id="path729-8"
       cx="105.101"
       cy="173.30211"
       rx="24.600342"
       ry="39.026039" /><path
       id="rect823"
       style="opacity:0.5;fill:#00ff00;stroke-width:0.139379"
       d="M 84.263883,134.27605 H 105.101 v 78.0521 H 84.263883 Z"
       sodipodi:nodetypes="ccccc" /></g><g
     inkscape:groupmode="layer"
     id="layer3"
     inkscape:label="Layer 1"
     transform="translate(-22.071831,-18.858333)" /><g
     id="g1275"
     transform="translate(0.25,0.25)"><g
       id="g312"
       transform="translate(-56.120833,-34.160417)"><g
         id="g1047"
         transform="translate(4.1832898,0.17604183)"><path
           id="ellipse890"
           style="display:inline;opacity:1;fill:#000000;stroke:#ffffff;stroke-width:1.5;stroke-miterlimit:4;stroke-dasharray:none;stroke-opacity:1"
           d="M 81.221399,34.660417 A 24.600343,39.026044 0 0 0 56.620833,73.686458 24.600343,39.026044 0 0 0 81.221399,112.7125 H 102.05837 A 24.600343,39.026044 0 0 0 126.65842,73.686458 24.600343,39.026044 0 0 0 102.05837,34.660417 Z m 10.646895,20.256128 a 11.982002,19.008278 0 0 1 0.121957,0.02997 11.982002,19.008278 0 0 1 0.330212,0.09715 11.982002,19.008278 0 0 1 0.328662,0.111104 11.982002,19.008278 0 0 1 0.326595,0.12609 11.982002,19.008278 0 0 1 0.324528,0.140044 11.982002,19.008278 0 0 1 0.321428,0.155029 11.982002,19.008278 0 0 1 0.318843,0.168982 11.982002,19.008278 0 0 1 0.315743,0.182934 11.982002,19.008278 0 0 1 0.312126,0.197404 11.982002,19.008278 0 0 1 0.308508,0.21084 11.982002,19.008278 0 0 1 0.304891,0.224276 11.982002,19.008278 0 0 1 0.300757,0.238228 11.982002,19.008278 0 0 1 0.296623,0.251148 11.982002,19.008278 0 0 1 0.291455,0.264583 11.982002,19.008278 0 0 1 0.287321,0.277502 11.982002,19.008278 0 0 1 0.282153,0.289905 11.982002,19.008278 0 0 1 0.276469,0.302307 11.982002,19.008278 0 0 1 0.271301,0.31471 11.982002,19.008278 0 0 1 0.265617,0.326595 11.982002,19.008278 0 0 1 0.259933,0.337964 11.982002,19.008278 0 0 1 0.253731,0.349849 11.982002,19.008278 0 0 1 0.24753,0.360702 11.982002,19.008278 0 0 1 0.240812,0.371553 11.982002,19.008278 0 0 1 0.234611,0.382406 11.982002,19.008278 0 0 1 0.227376,0.392741 11.982002,19.008278 0 0 1 0.220142,0.402042 11.982002,19.008278 0 0 1 0.213424,0.412378 11.982002,19.008278 0 0 1 0.205672,0.42168 11.982002,19.008278 0 0 1 0.198437,0.430465 11.982002,19.008278 0 0 1 0.190686,0.438733 11.982002,19.008278 0 0 1 0.182423,0.447518 11.982002,19.008278 0 0 1 0.17518,0.455269 11.982002,19.008278 0 0 1 0.1664,0.463021 11.982002,19.008278 0 0 1 0.15864,0.470255 11.982002,19.008278 0 0 1 0.14986,0.476974 11.982002,19.008278 0 0 1 0.1416,0.483691 11.982002,19.008278 0 0 1 0.13281,0.489893 11.982002,19.008278 0 0 1 0.12454,0.49506 11.982002,19.008278 0 0 1 0.11524,0.500745 11.982002,19.008278 0 0 1 0.10645,0.505912 11.982002,19.008278 0 0 1 0.0977,0.510046 11.982002,19.008278 0 0 1 0.0884,0.514181 11.982002,19.008278 0 0 1 0.0796,0.518314 11.982002,19.008278 0 0 1 0.0703,0.521416 11.982002,19.008278 0 0 1 0.061,0.524515 11.982002,19.008278 0 0 1 0.0517,0.526583 11.982002,19.008278 0 0 1 0.0424,0.529167 11.982002,19.008278 0 0 1 0.0326,0.5302 11.982002,19.008278 0 0 1 0.0238,0.532267 11.982002,19.008278 0 0 1 0.0139,0.532268 11.982002,19.008278 0 0 1 0.005,0.5333 11.982002,19.008278 0 0 1 -0.0408,1.56993 11.982002,19.008278 0 0 1 -0.12247,1.558562 11.982002,19.008278 0 0 1 -0.20309,1.53789 11.982002,19.008278 0 0 1 -0.28267,1.505335 11.982002,19.008278 0 0 1 -0.36019,1.463993 11.982002,19.008278 0 0 1 -0.43459,1.411283 11.982002,19.008278 0 0 1 -0.50695,1.349789 11.982002,19.008278 0 0 1 -0.575675,1.278475 11.982002,19.008278 0 0 1 -0.639754,1.198893 11.982002,19.008278 0 0 1 -0.700216,1.110526 11.982002,19.008278 0 0 1 -0.756026,1.015442 11.982002,19.008278 0 0 1 -0.805636,0.913123 11.982002,19.008278 0 0 1 -0.851111,0.804085 11.982002,19.008278 0 0 1 -0.889351,0.689881 11.982002,19.008278 0 0 1 -0.922941,0.571024 11.982002,19.008278 0 0 1 -0.948779,0.448552 11.982002,19.008278 0 0 1 -0.96945,0.32246 11.982002,19.008278 0 0 1 -0.08837,0.01757 15.191097,28.851397 0 0 1 -3.660242,-18.766813 15.191097,28.851397 0 0 1 3.661792,-18.769913 z" /><path
           id="path1124"
           style="display:inline;opacity:1;fill:none;stroke:#ffffff;stroke-width:1.5;stroke-miterlimit:4;stroke-dasharray:none;stroke-opacity:1"
           d="m 103.39782,44.834989 a 15.191097,28.851397 0 0 0 -11.529526,10.081556 11.982002,19.008278 0 0 1 0.121957,0.02997 11.982002,19.008278 0 0 1 0.330212,0.09715 11.982002,19.008278 0 0 1 0.328662,0.111104 11.982002,19.008278 0 0 1 0.326595,0.12609 11.982002,19.008278 0 0 1 0.324528,0.140044 11.982002,19.008278 0 0 1 0.321428,0.155029 11.982002,19.008278 0 0 1 0.318843,0.168982 11.982002,19.008278 0 0 1 0.315743,0.182934 11.982002,19.008278 0 0 1 0.312126,0.197404 11.982002,19.008278 0 0 1 0.308508,0.21084 11.982002,19.008278 0 0 1 0.304891,0.224276 11.982002,19.008278 0 0 1 0.300757,0.238228 11.982002,19.008278 0 0 1 0.296623,0.251148 11.982002,19.008278 0 0 1 0.291455,0.264583 11.982002,19.008278 0 0 1 0.287321,0.277502 11.982002,19.008278 0 0 1 0.282153,0.289905 11.982002,19.008278 0 0 1 0.276469,0.302307 11.982002,19.008278 0 0 1 0.271301,0.31471 11.982002,19.008278 0 0 1 0.265617,0.326595 11.982002,19.008278 0 0 1 0.259933,0.337964 11.982002,19.008278 0 0 1 0.253731,0.349849 11.982002,19.008278 0 0 1 0.24753,0.360702 11.982002,19.008278 0 0 1 0.240812,0.371553 11.982002,19.008278 0 0 1 0.234611,0.382406 11.982002,19.008278 0 0 1 0.227376,0.392741 11.982002,19.008278 0 0 1 0.220142,0.402042 11.982002,19.008278 0 0 1 0.213424,0.412378 11.982002,19.008278 0 0 1 0.205672,0.42168 11.982002,19.008278 0 0 1 0.198437,0.430465 11.982002,19.008278 0 0 1 0.190686,0.438733 11.982002,19.008278 0 0 1 0.182423,0.447518 11.982002,19.008278 0 0 1 0.17518,0.455269 11.982002,19.008278 0 0 1 0.1664,0.463021 11.982002,19.008278 0 0 1 0.15864,0.470255 11.982002,19.008278 0 0 1 0.14986,0.476974 11.982002,19.008278 0 0 1 0.1416,0.483691 11.982002,19.008278 0 0 1 0.13281,0.489893 11.982002,19.008278 0 0 1 0.12454,0.49506 11.982002,19.008278 0 0 1 0.11524,0.500745 11.982002,19.008278 0 0 1 0.10645,0.505912 11.982002,19.008278 0 0 1 0.0977,0.510046 11.982002,19.008278 0 0 1 0.0884,0.514181 11.982002,19.008278 0 0 1 0.0796,0.518314 11.982002,19.008278 0 0 1 0.0703,0.521416 11.982002,19.008278 0 0 1 0.061,0.524515 11.982002,19.008278 0 0 1 0.0517,0.526583 11.982002,19.008278 0 0 1 0.0424,0.529167 11.982002,19.008278 0 0 1 0.0326,0.5302 11.982002,19.008278 0 0 1 0.0238,0.532267 11.982002,19.008278 0 0 1 0.0139,0.532268 11.982002,19.008278 0 0 1 0.005,0.5333 11.982002,19.008278 0 0 1 -0.0408,1.56993 11.982002,19.008278 0 0 1 -0.12247,1.558562 11.982002,19.008278 0 0 1 -0.20309,1.53789 11.982002,19.008278 0 0 1 -0.28267,1.505335 11.982002,19.008278 0 0 1 -0.36019,1.463993 11.982002,19.008278 0 0 1 -0.43459,1.411283 11.982002,19.008278 0 0 1 -0.50695,1.349789 11.982002,19.008278 0 0 1 -0.575675,1.278475 11.982002,19.008278 0 0 1 -0.639754,1.198893 11.982002,19.008278 0 0 1 -0.700216,1.110526 11.982002,19.008278 0 0 1 -0.756026,1.015442 11.982002,19.008278 0 0 1 -0.805636,0.913123 11.982002,19.008278 0 0 1 -0.851111,0.804085 11.982002,19.008278 0 0 1 -0.889351,0.689881 11.982002,19.008278 0 0 1 -0.922941,0.571024 11.982002,19.008278 0 0 1 -0.948779,0.448552 11.982002,19.008278 0 0 1 -0.96945,0.32246 11.982002,19.008278 0 0 1 -0.08837,0.01757 15.191097,28.851397 0 0 0 11.531079,10.084663 15.191097,28.851397 0 0 0 15.19081,-28.851476 15.191097,28.851397 0 0 0 -15.19081,-28.851469 z" /><path
           id="path729-8-8"
           style="display:inline;fill:none;stroke:#ffffff;stroke-width:1.5;stroke-miterlimit:4;stroke-dasharray:none;stroke-opacity:1"
           d="m 91.867311,92.453298 a 11.982002,19.008278 0 0 0 0.08837,-0.0176 11.982002,19.008278 0 0 0 0.96945,-0.32246 11.982002,19.008278 0 0 0 0.948779,-0.44855 11.982002,19.008278 0 0 0 0.922941,-0.57103 11.982002,19.008278 0 0 0 0.889351,-0.68988 11.982002,19.008278 0 0 0 0.851111,-0.80408 11.982002,19.008278 0 0 0 0.805636,-0.91312 11.982002,19.008278 0 0 0 0.756026,-1.01545 11.982002,19.008278 0 0 0 0.700216,-1.11052 11.982002,19.008278 0 0 0 0.639754,-1.1989 11.982002,19.008278 0 0 0 0.575675,-1.27847 11.982002,19.008278 0 0 0 0.50695,-1.349789 11.982002,19.008278 0 0 0 0.43459,-1.411283 11.982002,19.008278 0 0 0 0.36019,-1.463993 11.982002,19.008278 0 0 0 0.28267,-1.505335 11.982002,19.008278 0 0 0 0.20309,-1.53789 11.982002,19.008278 0 0 0 0.12247,-1.558562 11.982002,19.008278 0 0 0 0.0408,-1.56993 11.982002,19.008278 0 0 0 -0.005,-0.5333 11.982002,19.008278 0 0 0 -0.0139,-0.532268 11.982002,19.008278 0 0 0 -0.0238,-0.532267 11.982002,19.008278 0 0 0 -0.0326,-0.5302 11.982002,19.008278 0 0 0 -0.0424,-0.529167 11.982002,19.008278 0 0 0 -0.0517,-0.526583 11.982002,19.008278 0 0 0 -0.061,-0.524515 11.982002,19.008278 0 0 0 -0.0703,-0.521416 11.982002,19.008278 0 0 0 -0.0796,-0.518314 11.982002,19.008278 0 0 0 -0.0884,-0.514181 11.982002,19.008278 0 0 0 -0.0977,-0.510046 11.982002,19.008278 0 0 0 -0.10645,-0.505912 11.982002,19.008278 0 0 0 -0.11524,-0.500745 11.982002,19.008278 0 0 0 -0.12454,-0.49506 11.982002,19.008278 0 0 0 -0.13281,-0.489893 11.982002,19.008278 0 0 0 -0.1416,-0.483691 11.982002,19.008278 0 0 0 -0.14986,-0.476974 11.982002,19.008278 0 0 0 -0.15864,-0.470255 11.982002,19.008278 0 0 0 -0.1664,-0.463021 11.982002,19.008278 0 0 0 -0.17518,-0.455269 11.982002,19.008278 0 0 0 -0.182423,-0.447518 11.982002,19.008278 0 0 0 -0.190686,-0.438733 11.982002,19.008278 0 0 0 -0.198437,-0.430465 11.982002,19.008278 0 0 0 -0.205672,-0.42168 11.982002,19.008278 0 0 0 -0.213424,-0.412378 11.982002,19.008278 0 0 0 -0.220142,-0.402042 11.982002,19.008278 0 0 0 -0.227376,-0.392741 11.982002,19.008278 0 0 0 -0.234611,-0.382406 11.982002,19.008278 0 0 0 -0.240812,-0.371553 11.982002,19.008278 0 0 0 -0.24753,-0.360702 11.982002,19.008278 0 0 0 -0.253731,-0.349849 11.982002,19.008278 0 0 0 -0.259933,-0.337964 11.982002,19.008278 0 0 0 -0.265617,-0.326595 11.982002,19.008278 0 0 0 -0.271301,-0.31471 11.982002,19.008278 0 0 0 -0.276469,-0.302307 11.982002,19.008278 0 0 0 -0.282153,-0.289905 11.982002,19.008278 0 0 0 -0.287321,-0.277502 11.982002,19.008278 0 0 0 -0.291455,-0.264583 11.982002,19.008278 0 0 0 -0.296623,-0.251148 11.982002,19.008278 0 0 0 -0.300757,-0.238228 11.982002,19.008278 0 0 0 -0.304891,-0.224276 11.982002,19.008278 0 0 0 -0.308508,-0.21084 11.982002,19.008278 0 0 0 -0.312126,-0.197404 11.982002,19.008278 0 0 0 -0.315743,-0.182934 11.982002,19.008278 0 0 0 -0.318843,-0.168982 11.982002,19.008278 0 0 0 -0.321428,-0.155029 11.982002,19.008278 0 0 0 -0.324528,-0.140044 11.982002,19.008278 0 0 0 -0.326595,-0.12609 11.982002,19.008278 0 0 0 -0.328662,-0.111104 11.982002,19.008278 0 0 0 -0.330212,-0.09715 11.982002,19.008278 0 0 0 -0.121957,-0.02997 15.191097,28.851397 0 0 0 -3.661792,18.769913 15.191097,28.851397 0 0 0 3.660242,18.766818 z" /><path
           id="path729-8-6"
           style="display:inline;opacity:1;fill:none;stroke:#ffffff;stroke-width:1.5;stroke-linecap:round;stroke-miterlimit:4;stroke-dasharray:none"
           d="m 77.957524,65.821348 c 0.327699,-2.540501 0.811003,-4.991081 1.433425,-7.325587 0.622423,-2.334505 1.383963,-4.552934 2.268135,-6.629133 0.884172,-2.076199 1.890974,-4.010166 3.003921,-5.775747 1.112946,-1.765581 2.332036,-3.362776 3.640782,-4.765428 1.308747,-1.402652 2.707149,-2.610763 4.178721,-3.598175 1.471572,-0.987413 3.016313,-1.754128 4.617736,-2.27399 0.400356,-0.129965 0.804254,-0.244503 1.211437,-0.343203 0.407183,-0.0987 0.817651,-0.181563 1.231147,-0.248181 0.413495,-0.06662 0.830022,-0.116989 1.249312,-0.150707 0.41929,-0.03372 0.84135,-0.05078 1.26593,-0.05078 0.84915,-1e-6 1.68825,0.06825 2.51524,0.201486 0.827,0.133235 1.64188,0.331452 2.44259,0.591383"
           sodipodi:nodetypes="csssssssssssc" /></g></g></g></svg>
